<?xml version="1.0" encoding="UTF-8"?> <svg xmlns="http://www.w3.org/2000/svg" width="512" height="512" viewBox="0 0 512 512" fill="none"> <path d="M487 180H452V128.785L323.215 0H60V180H25V436H60V512H452V436H487V180ZM332 51.2148L400.785 120H332V51.2148ZM90 30H302V150H422V180H90V30ZM422 482H90V436H422V482ZM457 406H55V210H457V406Z" fill="white"></path> <path d="M128 333H142.5C167.59 333 188 312.59 188 287.5C188 262.41 167.59 242 142.5 242H98V378H128V333ZM128 272H142.5C151.047 272 158 278.953 158 287.5C158 296.047 151.047 303 142.5 303H128V272Z" fill="white"></path> <path d="M308 318V302C308 268.914 281.086 242 248 242H218V378H248C281.086 378 308 351.086 308 318ZM248 272C264.543 272 278 285.457 278 302V318C278 334.543 264.543 348 248 348V272Z" fill="white"></path> <path d="M370 336.5H400V306.5H370V272H415V242H340V378H370V336.5Z" fill="white"></path> </svg> 